2.5Hzhigh3min_grf.mot
version=1
nRows=12
nColumns 19
inDegrees=yes
endheader
time	1_ground_force_vx	1_ground_force_vy	1_ground_force_vz	1_ground_force_px	1_ground_force_py	1_ground_force_pz	1_ground_torque_x	1_ground_torque_y	1_ground_torque_z	2_ground_force_vx	2_ground_force_vy	2_ground_force_vz	2_ground_force_px	2_ground_force_py	2_ground_force_pz	2_ground_torque_x	2_ground_torque_y	2_ground_torque_z
            0.005000	          -60.689296	         1611.352051	         -111.802171	           -0.185537	            0.006335	           -0.429481	           -0.247308	            6.566227	           -0.455592	          -19.543014	         1454.365540	          104.590587	           -0.200874	            0.005691	           -0.678728	            0.073925	           -5.501429	           -0.395635
            0.005500	          -60.503108	         1610.266031	         -110.752574	           -0.185421	            0.006335	           -0.429418	           -0.245974	            6.546487	           -0.450261	          -19.915402	         1453.629632	          104.024981	           -0.200799	            0.005691	           -0.678738	            0.077827	           -5.680586	           -0.406515
            0.006000	          -60.911395	         1606.654225	         -109.299621	           -0.185352	            0.006336	           -0.429649	           -0.237489	            6.264232	           -0.426152	          -20.190930	         1451.974515	          103.080624	           -0.200711	            0.005691	           -0.678638	            0.079840	           -5.741449	           -0.407605
            0.006500	          -61.091529	         1605.747522	         -108.064932	           -0.185337	            0.006336	           -0.429560	           -0.234590	            6.166020	           -0.414966	          -20.003422	         1451.795631	          101.812836	           -0.200657	            0.005691	           -0.678696	            0.079478	           -5.768329	           -0.404527
            0.007000	          -61.134001	         1602.858347	         -106.930777	           -0.185237	            0.006336	           -0.429706	           -0.239729	            6.285407	           -0.419316	          -20.324410	         1449.771684	          101.007963	           -0.200578	            0.005691	           -0.678518	            0.080099	           -5.713569	           -0.398074
            0.007500	          -60.947241	         1600.510031	         -105.749033	           -0.185161	            0.006336	           -0.429715	           -0.252618	            6.633899	           -0.438316	          -20.599877	         1448.116065	          100.204399	           -0.200464	            0.005691	           -0.678430	            0.081784	           -5.749186	           -0.397823
            0.008000	          -60.578327	         1596.721936	         -105.170053	           -0.184943	            0.006337	           -0.429861	           -0.262365	            6.915421	           -0.455493	          -20.922818	         1446.644266	           99.495353	           -0.200362	            0.005692	           -0.678426	            0.085058	           -5.881094	           -0.404482
            0.008500	          -60.667678	         1594.555266	         -104.399539	           -0.184924	            0.006337	           -0.429833	           -0.266390	            7.001639	           -0.458415	          -21.433119	         1445.171455	           98.880258	           -0.200219	            0.005692	           -0.678356	            0.089892	           -6.061124	           -0.414709
            0.009000	          -60.481569	         1592.027711	         -103.493697	           -0.184908	            0.006337	           -0.429870	           -0.262425	            6.907677	           -0.449051	          -21.798901	         1442.594353	           98.214225	           -0.200161	            0.005692	           -0.678272	            0.092211	           -6.102256	           -0.415452
            0.009500	          -60.477903	         1588.777559	         -102.269513	           -0.184800	            0.006337	           -0.429892	           -0.251716	            6.612687	           -0.425658	          -21.886263	         1440.754996	           97.503765	           -0.200066	            0.005692	           -0.678294	            0.093984	           -6.186897	           -0.418701
            0.010000	          -60.749265	         1585.347181	         -101.045403	           -0.184745	            0.006338	           -0.429987	           -0.249869	            6.520734	           -0.415613	          -22.206688	         1438.547806	           96.463602	           -0.199945	            0.005692	           -0.678121	            0.093850	           -6.079600	           -0.407675
            0.010500	          -60.929118	         1582.277609	          -99.865826	           -0.184675	            0.006338	           -0.429990	           -0.257499	            6.687040	           -0.422054	          -22.527842	         1436.525197	           95.283319	           -0.199946	            0.005692	           -0.678189	            0.093822	           -5.982723	           -0.396828
